<svg width="523" height="162" viewBox="0 0 523 162" fill="none" xmlns="http://www.w3.org/2000/svg">
<path d="M76.705 154.662L6.46604 84.9011C-2.15535 76.3384 -2.15535 62.4239 6.46604 53.8612L107.958 154.662C99.2728 163.225 85.3264 163.225 76.705 154.662Z" fill="#C12128"/>
<path d="M88.863 55.7927C91.4824 58.4187 100.168 65.3292 107.957 65.3292V24.0735C107.957 10.8054 97.2039 0.0249794 83.9687 0.0249794V17.5777L76.386 9.9761C70.5956 4.17128 62.944 0.370504 54.8099 0.0249794C45.9175 -0.320546 37.4387 2.92739 31.2347 9.21595C18.9646 21.5166 18.9646 41.488 31.2347 53.7887L88.9319 111.63C98.3068 102.231 98.3068 86.9591 88.9319 77.5608L48.1923 36.7197C45.0903 33.61 45.2971 28.4962 48.7438 25.6629C51.7768 23.1752 56.2575 23.728 58.9459 26.4922" fill="#C12128"/>
<path d="M143.882 103.296C143.882 115.427 150.489 119.868 161.104 119.868H170.852V109.578H163.27C158.071 109.578 156.338 107.737 156.338 103.296V70.2601H170.852V60.1868H156.338V45.3477H143.882V60.1868H136.842V70.2601H143.882V103.296Z" fill="#FAFAFA"/>
<path d="M195.664 88.457C195.664 75.7842 201.296 71.9931 210.395 71.9931H213.536V59.212C205.087 59.212 199.13 62.8947 195.664 68.852V60.1868H183.316V119.868H195.664V88.457Z" fill="#FAFAFA"/>
<path d="M280.018 60.1868H267.671V93.4395C267.671 104.379 261.713 110.012 252.615 110.012C243.625 110.012 237.667 104.379 237.667 93.4395V60.1868H225.428V95.2808C225.428 111.961 236.043 120.735 250.015 120.735C257.056 120.735 263.771 117.81 267.671 112.72V119.868H280.018V60.1868Z" fill="#FAFAFA"/>
<path d="M341.911 103.188C341.261 81.6332 307.575 88.3487 307.575 76.3257C307.575 72.3181 311.041 69.6102 317.649 69.6102C324.364 69.6102 328.372 73.1846 328.805 78.3837H341.153C340.503 66.4691 331.621 59.212 318.082 59.212C304.001 59.212 295.119 66.9023 295.119 76.4341C295.119 98.3136 329.78 91.5981 329.78 103.296C329.78 107.412 325.989 110.445 318.84 110.445C312.016 110.445 307.359 106.437 306.925 101.563H294.144C294.686 112.395 304.759 120.843 319.057 120.843C333.138 120.843 341.911 113.261 341.911 103.188Z" fill="#FAFAFA"/>
<path d="M358.286 103.296C358.286 115.427 364.893 119.868 375.508 119.868H385.256V109.578H377.674C372.475 109.578 370.742 107.737 370.742 103.296V70.2601H385.256V60.1868H370.742V45.3477H358.286V60.1868H351.246V70.2601H358.286V103.296Z" fill="#FAFAFA"/>
<path d="M422.849 69.6102C432.056 69.6102 439.313 75.4592 439.53 84.666H406.494C407.794 75.2426 414.509 69.6102 422.849 69.6102ZM450.795 102.105H437.472C435.197 106.762 430.973 110.445 423.391 110.445C414.292 110.445 407.252 104.488 406.385 94.6309H451.986C452.311 92.573 452.419 90.6233 452.419 88.5653C452.419 71.0183 440.396 59.212 423.391 59.212C405.736 59.212 393.604 71.2349 393.604 89.9734C393.604 108.712 406.277 120.843 423.391 120.843C438.013 120.843 447.437 112.503 450.795 102.105Z" fill="#FAFAFA"/>
<path d="M461.538 89.7568C461.538 108.17 473.994 120.843 489.7 120.843C499.448 120.843 506.597 116.294 510.388 110.878V119.868H522.844V39.7153H510.388V68.5271C505.839 62.8947 497.607 59.212 489.808 59.212C473.994 59.212 461.538 71.3433 461.538 89.7568ZM510.388 89.9734C510.388 102.863 501.615 110.12 492.299 110.12C483.093 110.12 474.211 102.646 474.211 89.7568C474.211 76.8673 483.093 69.9352 492.299 69.9352C501.615 69.9352 510.388 77.1923 510.388 89.9734Z" fill="#FAFAFA"/>
</svg>
